<?xml version="1.0" encoding="UTF-8" standalone="no"?><svg xmlns="http://www.w3.org/2000/svg" xmlns:xlink="http://www.w3.org/1999/xlink" contentScriptType="application/ecmascript" contentStyleType="text/css" height="143px" preserveAspectRatio="none" style="width:780px;height:143px;" version="1.1" viewBox="0 0 780 143" width="780px" zoomAndPan="magnify"><defs><filter height="300%" id="f120r2bzgaawb8" width="300%" x="-1" y="-1"><feGaussianBlur result="blurOut" stdDeviation="2.0"/><feColorMatrix in="blurOut" result="blurOut2" type="matrix" values="0 0 0 0 0 0 0 0 0 0 0 0 0 0 0 0 0 0 .4 0"/><feOffset dx="4.0" dy="4.0" in="blurOut2" result="blurOut3"/><feBlend in="SourceGraphic" in2="blurOut3" mode="normal"/></filter></defs><g><!--MD5=[af9c894f5081c06e7f12132752ca6152]
class Interferogram--><rect fill="#4B4B4B" filter="url(#f120r2bzgaawb8)" height="32" id="Interferogram" style="stroke: #383838; stroke-width: 1.5;" width="118" x="6" y="8"/><rect fill="#4B4B4B" height="32" style="stroke: #383838; stroke-width: 1.5;" width="118" x="6" y="8"/><ellipse cx="21" cy="24" fill="#C2C2C2" rx="11" ry="11" style="stroke: #383838; stroke-width: 1.0;"/><path d="M23.9688,29.6406 Q23.3906,29.9375 22.75,30.0781 Q22.1094,30.2344 21.4063,30.2344 Q18.9063,30.2344 17.5781,28.5938 Q16.2656,26.9375 16.2656,23.8125 Q16.2656,20.6875 17.5781,19.0313 Q18.9063,17.375 21.4063,17.375 Q22.1094,17.375 22.75,17.5313 Q23.4063,17.6875 23.9688,17.9844 L23.9688,20.7031 Q23.3438,20.125 22.75,19.8594 Q22.1563,19.5781 21.5313,19.5781 Q20.1875,19.5781 19.5,20.6563 Q18.8125,21.7188 18.8125,23.8125 Q18.8125,25.9063 19.5,26.9844 Q20.1875,28.0469 21.5313,28.0469 Q22.1563,28.0469 22.75,27.7813 Q23.3438,27.5 23.9688,26.9219 L23.9688,29.6406 Z "/><text fill="#000000" font-family="sans-serif" font-size="12" lengthAdjust="spacingAndGlyphs" textLength="86" x="35" y="28.1543">Interferogram</text><!--MD5=[6ee3ab376f6c8a3718567d650ab8e781]
class BasePoints--><rect fill="#4B4B4B" filter="url(#f120r2bzgaawb8)" height="32" id="BasePoints" style="stroke: #383838; stroke-width: 1.5;" width="102" x="211" y="8"/><rect fill="#4B4B4B" height="32" style="stroke: #383838; stroke-width: 1.5;" width="102" x="211" y="8"/><ellipse cx="226" cy="24" fill="#C2C2C2" rx="11" ry="11" style="stroke: #383838; stroke-width: 1.0;"/><path d="M228.9688,29.6406 Q228.3906,29.9375 227.75,30.0781 Q227.1094,30.2344 226.4063,30.2344 Q223.9063,30.2344 222.5781,28.5938 Q221.2656,26.9375 221.2656,23.8125 Q221.2656,20.6875 222.5781,19.0313 Q223.9063,17.375 226.4063,17.375 Q227.1094,17.375 227.75,17.5313 Q228.4063,17.6875 228.9688,17.9844 L228.9688,20.7031 Q228.3438,20.125 227.75,19.8594 Q227.1563,19.5781 226.5313,19.5781 Q225.1875,19.5781 224.5,20.6563 Q223.8125,21.7188 223.8125,23.8125 Q223.8125,25.9063 224.5,26.9844 Q225.1875,28.0469 226.5313,28.0469 Q227.1563,28.0469 227.75,27.7813 Q228.3438,27.5 228.9688,26.9219 L228.9688,29.6406 Z "/><text fill="#000000" font-family="sans-serif" font-size="12" lengthAdjust="spacingAndGlyphs" textLength="70" x="240" y="28.1543">BasePoints</text><!--MD5=[aca76df4ce339dc46004790642764c8b]
class Fringes--><rect fill="#4B4B4B" filter="url(#f120r2bzgaawb8)" height="32" id="Fringes" style="stroke: #383838; stroke-width: 1.5;" width="78" x="387" y="8"/><rect fill="#4B4B4B" height="32" style="stroke: #383838; stroke-width: 1.5;" width="78" x="387" y="8"/><ellipse cx="402" cy="24" fill="#C2C2C2" rx="11" ry="11" style="stroke: #383838; stroke-width: 1.0;"/><path d="M404.9688,29.6406 Q404.3906,29.9375 403.75,30.0781 Q403.1094,30.2344 402.4063,30.2344 Q399.9063,30.2344 398.5781,28.5938 Q397.2656,26.9375 397.2656,23.8125 Q397.2656,20.6875 398.5781,19.0313 Q399.9063,17.375 402.4063,17.375 Q403.1094,17.375 403.75,17.5313 Q404.4063,17.6875 404.9688,17.9844 L404.9688,20.7031 Q404.3438,20.125 403.75,19.8594 Q403.1563,19.5781 402.5313,19.5781 Q401.1875,19.5781 400.5,20.6563 Q399.8125,21.7188 399.8125,23.8125 Q399.8125,25.9063 400.5,26.9844 Q401.1875,28.0469 402.5313,28.0469 Q403.1563,28.0469 403.75,27.7813 Q404.3438,27.5 404.9688,26.9219 L404.9688,29.6406 Z "/><text fill="#000000" font-family="sans-serif" font-size="12" lengthAdjust="spacingAndGlyphs" textLength="46" x="416" y="28.1543">Fringes</text><!--MD5=[deeae0f078a7546c2b0b9c60a26ae591]
class Phases--><rect fill="#4B4B4B" filter="url(#f120r2bzgaawb8)" height="32" id="Phases" style="stroke: #383838; stroke-width: 1.5;" width="78" x="539" y="8"/><rect fill="#4B4B4B" height="32" style="stroke: #383838; stroke-width: 1.5;" width="78" x="539" y="8"/><ellipse cx="554" cy="24" fill="#C2C2C2" rx="11" ry="11" style="stroke: #383838; stroke-width: 1.0;"/><path d="M556.9688,29.6406 Q556.3906,29.9375 555.75,30.0781 Q555.1094,30.2344 554.4063,30.2344 Q551.9063,30.2344 550.5781,28.5938 Q549.2656,26.9375 549.2656,23.8125 Q549.2656,20.6875 550.5781,19.0313 Q551.9063,17.375 554.4063,17.375 Q555.1094,17.375 555.75,17.5313 Q556.4063,17.6875 556.9688,17.9844 L556.9688,20.7031 Q556.3438,20.125 555.75,19.8594 Q555.1563,19.5781 554.5313,19.5781 Q553.1875,19.5781 552.5,20.6563 Q551.8125,21.7188 551.8125,23.8125 Q551.8125,25.9063 552.5,26.9844 Q553.1875,28.0469 554.5313,28.0469 Q555.1563,28.0469 555.75,27.7813 Q556.3438,27.5 556.9688,26.9219 L556.9688,29.6406 Z "/><text fill="#000000" font-family="sans-serif" font-size="12" lengthAdjust="spacingAndGlyphs" textLength="46" x="568" y="28.1543">Phases</text><!--MD5=[f8e447597763f075ad77ec38d76a9d2b]
class Density--><rect fill="#4B4B4B" filter="url(#f120r2bzgaawb8)" height="32" id="Density" style="stroke: #383838; stroke-width: 1.5;" width="78" x="691" y="8"/><rect fill="#4B4B4B" height="32" style="stroke: #383838; stroke-width: 1.5;" width="78" x="691" y="8"/><ellipse cx="706" cy="24" fill="#C2C2C2" rx="11" ry="11" style="stroke: #383838; stroke-width: 1.0;"/><path d="M708.9688,29.6406 Q708.3906,29.9375 707.75,30.0781 Q707.1094,30.2344 706.4063,30.2344 Q703.9063,30.2344 702.5781,28.5938 Q701.2656,26.9375 701.2656,23.8125 Q701.2656,20.6875 702.5781,19.0313 Q703.9063,17.375 706.4063,17.375 Q707.1094,17.375 707.75,17.5313 Q708.4063,17.6875 708.9688,17.9844 L708.9688,20.7031 Q708.3438,20.125 707.75,19.8594 Q707.1563,19.5781 706.5313,19.5781 Q705.1875,19.5781 704.5,20.6563 Q703.8125,21.7188 703.8125,23.8125 Q703.8125,25.9063 704.5,26.9844 Q705.1875,28.0469 706.5313,28.0469 Q707.1563,28.0469 707.75,27.7813 Q708.3438,27.5 708.9688,26.9219 L708.9688,29.6406 Z "/><text fill="#000000" font-family="sans-serif" font-size="12" lengthAdjust="spacingAndGlyphs" textLength="46" x="720" y="28.1543">Density</text><!--MD5=[bddb511951cf0a1d6a79f67b0c2ed87d]
class Filter--><rect fill="#E2E2E2" filter="url(#f120r2bzgaawb8)" height="32" id="Filter" style="stroke: #383838; stroke-width: 1.5;" width="63" x="13.5" y="100"/><rect fill="#E2E2E2" height="32" style="stroke: #383838; stroke-width: 1.5;" width="63" x="13.5" y="100"/><ellipse cx="28.5" cy="116" fill="#C2C2C2" rx="11" ry="11" style="stroke: #383838; stroke-width: 1.0;"/><path d="M31.4688,121.6406 Q30.8906,121.9375 30.25,122.0781 Q29.6094,122.2344 28.9063,122.2344 Q26.4063,122.2344 25.0781,120.5938 Q23.7656,118.9375 23.7656,115.8125 Q23.7656,112.6875 25.0781,111.0313 Q26.4063,109.375 28.9063,109.375 Q29.6094,109.375 30.25,109.5313 Q30.9063,109.6875 31.4688,109.9844 L31.4688,112.7031 Q30.8438,112.125 30.25,111.8594 Q29.6563,111.5781 29.0313,111.5781 Q27.6875,111.5781 27,112.6563 Q26.3125,113.7188 26.3125,115.8125 Q26.3125,117.9063 27,118.9844 Q27.6875,120.0469 29.0313,120.0469 Q29.6563,120.0469 30.25,119.7813 Q30.8438,119.5 31.4688,118.9219 L31.4688,121.6406 Z "/><text fill="#000000" font-family="sans-serif" font-size="12" lengthAdjust="spacingAndGlyphs" textLength="31" x="42.5" y="120.1543">Filter</text><!--MD5=[3d8473d59ef262b5f1035f57208ec0d8]
class BasePointsFinder--><rect fill="#E2E2E2" filter="url(#f120r2bzgaawb8)" height="32" id="BasePointsFinder" style="stroke: #383838; stroke-width: 1.5;" width="141" x="111.5" y="100"/><rect fill="#E2E2E2" height="32" style="stroke: #383838; stroke-width: 1.5;" width="141" x="111.5" y="100"/><ellipse cx="126.5" cy="116" fill="#C2C2C2" rx="11" ry="11" style="stroke: #383838; stroke-width: 1.0;"/><path d="M129.4688,121.6406 Q128.8906,121.9375 128.25,122.0781 Q127.6094,122.2344 126.9063,122.2344 Q124.4063,122.2344 123.0781,120.5938 Q121.7656,118.9375 121.7656,115.8125 Q121.7656,112.6875 123.0781,111.0313 Q124.4063,109.375 126.9063,109.375 Q127.6094,109.375 128.25,109.5313 Q128.9063,109.6875 129.4688,109.9844 L129.4688,112.7031 Q128.8438,112.125 128.25,111.8594 Q127.6563,111.5781 127.0313,111.5781 Q125.6875,111.5781 125,112.6563 Q124.3125,113.7188 124.3125,115.8125 Q124.3125,117.9063 125,118.9844 Q125.6875,120.0469 127.0313,120.0469 Q127.6563,120.0469 128.25,119.7813 Q128.8438,119.5 129.4688,118.9219 L129.4688,121.6406 Z "/><text fill="#000000" font-family="sans-serif" font-size="12" lengthAdjust="spacingAndGlyphs" textLength="109" x="140.5" y="120.1543">BasePointsFinder</text><!--MD5=[7e88e9c61603129658b8889162b1bef5]
class FringeTracer--><rect fill="#E2E2E2" filter="url(#f120r2bzgaawb8)" height="32" id="FringeTracer" style="stroke: #383838; stroke-width: 1.5;" width="111" x="294.5" y="100"/><rect fill="#E2E2E2" height="32" style="stroke: #383838; stroke-width: 1.5;" width="111" x="294.5" y="100"/><ellipse cx="309.5" cy="116" fill="#C2C2C2" rx="11" ry="11" style="stroke: #383838; stroke-width: 1.0;"/><path d="M312.4688,121.6406 Q311.8906,121.9375 311.25,122.0781 Q310.6094,122.2344 309.9063,122.2344 Q307.4063,122.2344 306.0781,120.5938 Q304.7656,118.9375 304.7656,115.8125 Q304.7656,112.6875 306.0781,111.0313 Q307.4063,109.375 309.9063,109.375 Q310.6094,109.375 311.25,109.5313 Q311.9063,109.6875 312.4688,109.9844 L312.4688,112.7031 Q311.8438,112.125 311.25,111.8594 Q310.6563,111.5781 310.0313,111.5781 Q308.6875,111.5781 308,112.6563 Q307.3125,113.7188 307.3125,115.8125 Q307.3125,117.9063 308,118.9844 Q308.6875,120.0469 310.0313,120.0469 Q310.6563,120.0469 311.25,119.7813 Q311.8438,119.5 312.4688,118.9219 L312.4688,121.6406 Z "/><text fill="#000000" font-family="sans-serif" font-size="12" lengthAdjust="spacingAndGlyphs" textLength="79" x="323.5" y="120.1543">FringeTracer</text><!--MD5=[3b34486935a0df70b7a75ba0d570cfe8]
class Phaser--><rect fill="#E2E2E2" filter="url(#f120r2bzgaawb8)" height="32" id="Phaser" style="stroke: #383838; stroke-width: 1.5;" width="76" x="464" y="100"/><rect fill="#E2E2E2" height="32" style="stroke: #383838; stroke-width: 1.5;" width="76" x="464" y="100"/><ellipse cx="479" cy="116" fill="#C2C2C2" rx="11" ry="11" style="stroke: #383838; stroke-width: 1.0;"/><path d="M481.9688,121.6406 Q481.3906,121.9375 480.75,122.0781 Q480.1094,122.2344 479.4063,122.2344 Q476.9063,122.2344 475.5781,120.5938 Q474.2656,118.9375 474.2656,115.8125 Q474.2656,112.6875 475.5781,111.0313 Q476.9063,109.375 479.4063,109.375 Q480.1094,109.375 480.75,109.5313 Q481.4063,109.6875 481.9688,109.9844 L481.9688,112.7031 Q481.3438,112.125 480.75,111.8594 Q480.1563,111.5781 479.5313,111.5781 Q478.1875,111.5781 477.5,112.6563 Q476.8125,113.7188 476.8125,115.8125 Q476.8125,117.9063 477.5,118.9844 Q478.1875,120.0469 479.5313,120.0469 Q480.1563,120.0469 480.75,119.7813 Q481.3438,119.5 481.9688,118.9219 L481.9688,121.6406 Z "/><text fill="#000000" font-family="sans-serif" font-size="12" lengthAdjust="spacingAndGlyphs" textLength="44" x="493" y="120.1543">Phaser</text><!--MD5=[6beb07eff78edd9b8d2889f2609f51f4]
class Densifier--><rect fill="#E2E2E2" filter="url(#f120r2bzgaawb8)" height="32" id="Densifier" style="stroke: #383838; stroke-width: 1.5;" width="87" x="610.5" y="100"/><rect fill="#E2E2E2" height="32" style="stroke: #383838; stroke-width: 1.5;" width="87" x="610.5" y="100"/><ellipse cx="625.5" cy="116" fill="#C2C2C2" rx="11" ry="11" style="stroke: #383838; stroke-width: 1.0;"/><path d="M628.4688,121.6406 Q627.8906,121.9375 627.25,122.0781 Q626.6094,122.2344 625.9063,122.2344 Q623.4063,122.2344 622.0781,120.5938 Q620.7656,118.9375 620.7656,115.8125 Q620.7656,112.6875 622.0781,111.0313 Q623.4063,109.375 625.9063,109.375 Q626.6094,109.375 627.25,109.5313 Q627.9063,109.6875 628.4688,109.9844 L628.4688,112.7031 Q627.8438,112.125 627.25,111.8594 Q626.6563,111.5781 626.0313,111.5781 Q624.6875,111.5781 624,112.6563 Q623.3125,113.7188 623.3125,115.8125 Q623.3125,117.9063 624,118.9844 Q624.6875,120.0469 626.0313,120.0469 Q626.6563,120.0469 627.25,119.7813 Q627.8438,119.5 628.4688,118.9219 L628.4688,121.6406 Z "/><text fill="#000000" font-family="sans-serif" font-size="12" lengthAdjust="spacingAndGlyphs" textLength="55" x="639.5" y="120.1543">Densifier</text><ellipse cx="174" cy="24" fill="#000000" rx="2" ry="2" style="stroke: none; stroke-width: 1.0;"/><ellipse cx="350" cy="24" fill="#000000" rx="2" ry="2" style="stroke: none; stroke-width: 1.0;"/><ellipse cx="502" cy="24" fill="#000000" rx="2" ry="2" style="stroke: none; stroke-width: 1.0;"/><ellipse cx="654" cy="24" fill="#000000" rx="2" ry="2" style="stroke: none; stroke-width: 1.0;"/><!--MD5=[b0c92bf440e3f8800e93e795fcb87841]
link Interferogram to Filter--><path d="M61.5163,40.0252 C57.8678,56.8082 52.1695,83.0201 48.5109,99.8498 " fill="none" id="Interferogram-Filter" style="stroke: #383838; stroke-width: 1.0; stroke-dasharray: 7.0,7.0;"/><!--MD5=[870feb5070026a9ec0084b0bfd99cf84]
link Interferogram to apoint17--><path d="M124.1836,24 C140.0107,24 155.8378,24 171.6649,24 " fill="none" id="Interferogram-apoint17" style="stroke: #383838; stroke-width: 1.0;"/><!--MD5=[43580b49604cb4a4bf869071cb147408]
link apoint17 to BasePoints--><path d="M176.0625,24 C187.6999,24 199.3372,24 210.9746,24 " fill="none" id="apoint17-BasePoints" style="stroke: #383838; stroke-width: 1.0;"/><!--MD5=[2d7748f5883d0bfce0d41c4415db09f7]
link apoint17 to BasePointsFinder--><path d="M174.1978,26.2742 C175.0688,36.2908 178.6084,76.9966 180.6076,99.988 " fill="none" id="apoint17-BasePointsFinder" style="stroke: #383838; stroke-width: 1.0; stroke-dasharray: 7.0,7.0;"/><!--MD5=[23e0ee2c085c4410fc58217a578c6656]
link BasePoints to apoint22--><path d="M313.2188,24 C324.8087,24 336.3986,24 347.9885,24 " fill="none" id="BasePoints-apoint22" style="stroke: #383838; stroke-width: 1.0;"/><!--MD5=[09c638e140318a79117e7d6659cc16d6]
link apoint22 to Fringes--><path d="M352.0781,24 C363.6284,24 375.1787,24 386.729,24 " fill="none" id="apoint22-Fringes" style="stroke: #383838; stroke-width: 1.0;"/><!--MD5=[1d743df392488fa8ce1dd3359307d86a]
link apoint22 to FringeTracer--><path d="M350,26.2742 C350,36.2908 350,76.9966 350,99.988 " fill="none" id="apoint22-FringeTracer" style="stroke: #383838; stroke-width: 1.0; stroke-dasharray: 7.0,7.0;"/><!--MD5=[781d895e851dff85add88fee7a8ce07c]
link Fringes to apoint27--><path d="M465.1875,24 C476.7873,24 488.387,24 499.9868,24 " fill="none" id="Fringes-apoint27" style="stroke: #383838; stroke-width: 1.0;"/><!--MD5=[b47d330d10778855526d758482d2be87]
link apoint27 to Phases--><path d="M504.0781,24 C515.6284,24 527.1787,24 538.729,24 " fill="none" id="apoint27-Phases" style="stroke: #383838; stroke-width: 1.0;"/><!--MD5=[596ae8bc9654b352ddeb97af595b479c]
link apoint27 to Phaser--><path d="M502,26.2742 C502,36.2908 502,76.9966 502,99.988 " fill="none" id="apoint27-Phaser" style="stroke: #383838; stroke-width: 1.0; stroke-dasharray: 7.0,7.0;"/><!--MD5=[ef75686ccf25f1ffd7a595fe9ae79484]
link Phases to apoint32--><path d="M617.1875,24 C628.7873,24 640.387,24 651.9868,24 " fill="none" id="Phases-apoint32" style="stroke: #383838; stroke-width: 1.0;"/><!--MD5=[6498d5b8c1b033e74978fed09620167b]
link apoint32 to Density--><path d="M656.0781,24 C667.6284,24 679.1787,24 690.729,24 " fill="none" id="apoint32-Density" style="stroke: #383838; stroke-width: 1.0;"/><!--MD5=[bdbf8f5528d946069cd80c8759303714]
link apoint32 to Densifier--><path d="M654,26.2742 C654,36.2908 654,76.9966 654,99.988 " fill="none" id="apoint32-Densifier" style="stroke: #383838; stroke-width: 1.0; stroke-dasharray: 7.0,7.0;"/><!--MD5=[e8ce8bb72e37ef732314e558e89cf975]
@startuml

skinparam monochrome true

hide members

class Interferogram #green

class BasePoints #green

class Fringes #green

class Phases #green

class Density #green

Interferogram -right[#0000BB]- BasePoints
BasePoints -right[#0000BB]- Fringes
Fringes -right[#0000BB]- Phases
Phases -right[#0000BB]- Density

class Filter #yellow

class BasePointsFinder #yellow

class FringeTracer #yellow

class Phaser #yellow

class Densifier #yellow

Interferogram .down. Filter
(Interferogram, BasePoints) .down. BasePointsFinder
(BasePoints, Fringes) .down. FringeTracer
(Fringes, Phases) .down. Phaser
(Phases, Density) .down. Densifier



PlantUML version 1.2019.12(Sun Nov 03 13:24:54 MSK 2019)
(GPL source distribution)
Java Runtime: OpenJDK Runtime Environment
JVM: OpenJDK 64-Bit Server VM
Java Version: 11.0.7+10-post-Debian-3deb10u1
Operating System: Linux
Default Encoding: UTF-8
Language: ru
Country: RU
--></g></svg>