<?xml version="1.0" encoding="UTF-8" standalone="no"?><svg xmlns="http://www.w3.org/2000/svg" xmlns:xlink="http://www.w3.org/1999/xlink" contentScriptType="application/ecmascript" contentStyleType="text/css" height="252px" preserveAspectRatio="none" style="width:753px;height:252px;" version="1.1" viewBox="0 0 753 252" width="753px" zoomAndPan="magnify"><defs><filter height="300%" id="fhaecwl0adf8c" width="300%" x="-1" y="-1"><feGaussianBlur result="blurOut" stdDeviation="2.0"/><feColorMatrix in="blurOut" result="blurOut2" type="matrix" values="0 0 0 0 0 0 0 0 0 0 0 0 0 0 0 0 0 0 .4 0"/><feOffset dx="4.0" dy="4.0" in="blurOut2" result="blurOut3"/><feBlend in="SourceGraphic" in2="blurOut3" mode="normal"/></filter></defs><g><!--MD5=[ebfcaf9984fd03eed4bf0f4ef5e59542]
cluster Client's desktop computer--><polygon fill="#FFFFFF" filter="url(#fhaecwl0adf8c)" points="14,26,24,16,298,16,298,230,288,240,14,240,14,26" style="stroke: #000000; stroke-width: 1.5;"/><line style="stroke: #000000; stroke-width: 1.5;" x1="288" x2="297" y1="26" y2="17"/><line style="stroke: #000000; stroke-width: 1.5;" x1="14" x2="288" y1="26" y2="26"/><line style="stroke: #000000; stroke-width: 1.5;" x1="288" x2="288" y1="26" y2="240"/><text fill="#000000" font-family="sans-serif" font-size="14" font-weight="bold" lengthAdjust="spacingAndGlyphs" textLength="208" x="48" y="41.9951">Client's desktop computer</text><!--MD5=[d77eeca87b1a32d29091dd46c21c7a2e]
cluster High performance server--><polygon fill="#FFFFFF" filter="url(#fhaecwl0adf8c)" points="456,26,466,16,731,16,731,214,721,224,456,224,456,26" style="stroke: #000000; stroke-width: 1.5;"/><line style="stroke: #000000; stroke-width: 1.5;" x1="721" x2="730" y1="26" y2="17"/><line style="stroke: #000000; stroke-width: 1.5;" x1="456" x2="721" y1="26" y2="26"/><line style="stroke: #000000; stroke-width: 1.5;" x1="721" x2="721" y1="26" y2="224"/><text fill="#000000" font-family="sans-serif" font-size="14" font-weight="bold" lengthAdjust="spacingAndGlyphs" textLength="199" x="490" y="41.9951">High performance server</text><!--MD5=[4a65e84059005d12693a083370a06717]
entity client--><rect fill="#F8F8F8" filter="url(#fhaecwl0adf8c)" height="36.2969" style="stroke: #383838; stroke-width: 1.5;" width="205" x="59.5" y="48"/><rect fill="#F8F8F8" height="5" style="stroke: #383838; stroke-width: 1.5;" width="10" x="54.5" y="53"/><rect fill="#F8F8F8" height="5" style="stroke: #383838; stroke-width: 1.5;" width="10" x="54.5" y="74.2969"/><text fill="#000000" font-family="sans-serif" font-size="14" lengthAdjust="spacingAndGlyphs" textLength="185" x="69.5" y="70.9951">GUI component of Interfan.</text><!--MD5=[5cc73742f4f885359ebfbdc1634c0fb4]
entity images--><polygon fill="#F8F8F8" filter="url(#fhaecwl0adf8c)" points="22,144,68,144,75,165,290,165,290,232.1875,22,232.1875,22,144" style="stroke: #000000; stroke-width: 1.5;"/><line style="stroke: #000000; stroke-width: 1.5;" x1="22" x2="75" y1="165" y2="165"/><text fill="#000000" font-family="sans-serif" font-size="14" lengthAdjust="spacingAndGlyphs" textLength="67" x="32" y="184.9951">Images of</text><text fill="#000000" font-family="sans-serif" font-size="14" lengthAdjust="spacingAndGlyphs" textLength="238" x="32" y="201.292">interferograms and plasma density</text><text fill="#000000" font-family="sans-serif" font-size="14" lengthAdjust="spacingAndGlyphs" textLength="0" x="36" y="217.5889"/><!--MD5=[dd82451e1dd92fe3da01853750f49ff6]
entity server--><rect fill="#F8F8F8" filter="url(#fhaecwl0adf8c)" height="36.2969" style="stroke: #383838; stroke-width: 1.5;" width="221" x="473.5" y="48"/><rect fill="#F8F8F8" height="5" style="stroke: #383838; stroke-width: 1.5;" width="10" x="468.5" y="53"/><rect fill="#F8F8F8" height="5" style="stroke: #383838; stroke-width: 1.5;" width="10" x="468.5" y="74.2969"/><text fill="#000000" font-family="sans-serif" font-size="14" lengthAdjust="spacingAndGlyphs" textLength="201" x="483.5" y="70.9951">Server component of Interfan</text><!--MD5=[23ec4f1fff159d71b633b9f85a9aab58]
entity cache--><polygon fill="#F8F8F8" filter="url(#fhaecwl0adf8c)" points="512.5,160,558.5,160,565.5,181,655.5,181,655.5,215.5938,512.5,215.5938,512.5,160" style="stroke: #000000; stroke-width: 1.5;"/><line style="stroke: #000000; stroke-width: 1.5;" x1="512.5" x2="565.5" y1="181" y2="181"/><text fill="#000000" font-family="sans-serif" font-size="14" lengthAdjust="spacingAndGlyphs" textLength="113" x="522.5" y="200.9951">cache of images</text><!--MD5=[dab304f5ddff789061afb7df96f8505e]
entity rabbit--><path d="M311,53 L433,53 C438,53 438,66.1484 438,66.1484 C438,66.1484 438,79.2969 433,79.2969 L311,79.2969 C306,79.2969 306,66.1484 306,66.1484 C306,66.1484 306,53 311,53 " fill="#F8F8F8" filter="url(#fhaecwl0adf8c)" style="stroke: #383838; stroke-width: 1.5;"/><path d="M433,53 C428,53 428,66.1484 428,66.1484 C428,79.2969 433,79.2969 433,79.2969 " fill="none" style="stroke: #383838; stroke-width: 1.5;"/><text fill="#000000" font-family="sans-serif" font-size="14" lengthAdjust="spacingAndGlyphs" textLength="112" x="311" y="70.9951">Message broker</text><!--MD5=[4b5d76d9762f1aca0d43fc74d10cdbaf]
link client to images--><path d="M161.1147,84.0015 C160.3421,99.7103 159.1889,123.1597 158.1729,143.8178 " fill="none" id="client-images" style="stroke: #383838; stroke-width: 1.0; stroke-dasharray: 7.0,7.0;"/><!--MD5=[4d642b5c1176f7507ca8b0c1e6f49920]
link server to cache--><path d="M584,84.0015 C584,104.0187 584,136.6045 584,159.9677 " fill="none" id="server-cache" style="stroke: #383838; stroke-width: 1.0; stroke-dasharray: 7.0,7.0;"/><!--MD5=[9570044363c87e644e8fec79a6915556]
link client to rabbit--><path d="M264.5391,66 C278.2515,66 291.964,66 305.6765,66 " fill="none" id="client-rabbit" style="stroke: #383838; stroke-width: 1.0;"/><!--MD5=[91e42aed291ac116f4efc84e48dc51cd]
link rabbit to server--><path d="M438.25,66 C449.9214,66 461.5928,66 473.2642,66 " fill="none" id="rabbit-server" style="stroke: #383838; stroke-width: 1.0;"/><!--MD5=[debf96e351a29680ee8476f3deaca2f7]
@startuml
skinparam monochrome true

node "Client's desktop computer"{

    [GUI component of Interfan.] as client

    folder "Images of \n interferograms and plasma density\n " as images

    client .. images
}

queue "Message broker" as rabbit


node "High performance server" {
    [Server component of Interfan] as server

    folder "cache of images" as cache
    server .. cache
}

client -right- rabbit
rabbit -right- server

@enduml

PlantUML version 1.2019.12(Sun Nov 03 13:24:54 MSK 2019)
(GPL source distribution)
Java Runtime: OpenJDK Runtime Environment
JVM: OpenJDK 64-Bit Server VM
Java Version: 11.0.7+10-post-Debian-3deb10u1
Operating System: Linux
Default Encoding: UTF-8
Language: ru
Country: RU
--></g></svg>