<?xml version="1.0" encoding="UTF-8" standalone="no"?><svg xmlns="http://www.w3.org/2000/svg" xmlns:xlink="http://www.w3.org/1999/xlink" contentScriptType="application/ecmascript" contentStyleType="text/css" height="143px" preserveAspectRatio="none" style="width:975px;height:143px;" version="1.1" viewBox="0 0 975 143" width="975px" zoomAndPan="magnify"><defs><filter height="300%" id="f61han9otnsxd" width="300%" x="-1" y="-1"><feGaussianBlur result="blurOut" stdDeviation="2.0"/><feColorMatrix in="blurOut" result="blurOut2" type="matrix" values="0 0 0 0 0 0 0 0 0 0 0 0 0 0 0 0 0 0 .4 0"/><feOffset dx="4.0" dy="4.0" in="blurOut2" result="blurOut3"/><feBlend in="SourceGraphic" in2="blurOut3" mode="normal"/></filter></defs><g><!--MD5=[e6c809820d88acc3564faeb20394ab9d]
class MainWindow--><rect fill="#F8F8F8" filter="url(#f61han9otnsxd)" height="32" id="MainWindow" style="stroke: #383838; stroke-width: 1.5;" width="108" x="394.5" y="8"/><ellipse cx="409.5" cy="24" fill="#C2C2C2" rx="11" ry="11" style="stroke: #383838; stroke-width: 1.0;"/><path d="M412.4688,29.6406 Q411.8906,29.9375 411.25,30.0781 Q410.6094,30.2344 409.9063,30.2344 Q407.4063,30.2344 406.0781,28.5938 Q404.7656,26.9375 404.7656,23.8125 Q404.7656,20.6875 406.0781,19.0313 Q407.4063,17.375 409.9063,17.375 Q410.6094,17.375 411.25,17.5313 Q411.9063,17.6875 412.4688,17.9844 L412.4688,20.7031 Q411.8438,20.125 411.25,19.8594 Q410.6563,19.5781 410.0313,19.5781 Q408.6875,19.5781 408,20.6563 Q407.3125,21.7188 407.3125,23.8125 Q407.3125,25.9063 408,26.9844 Q408.6875,28.0469 410.0313,28.0469 Q410.6563,28.0469 411.25,27.7813 Q411.8438,27.5 412.4688,26.9219 L412.4688,29.6406 Z "/><text fill="#000000" font-family="sans-serif" font-size="12" lengthAdjust="spacingAndGlyphs" textLength="76" x="423.5" y="28.1543">MainWindow</text><!--MD5=[80806e08dac105db4bf03e60335471e4]
class MainMenu--><rect fill="#F8F8F8" filter="url(#f61han9otnsxd)" height="32" id="MainMenu" style="stroke: #383838; stroke-width: 1.5;" width="95" x="6" y="100"/><ellipse cx="21" cy="116" fill="#C2C2C2" rx="11" ry="11" style="stroke: #383838; stroke-width: 1.0;"/><path d="M23.9688,121.6406 Q23.3906,121.9375 22.75,122.0781 Q22.1094,122.2344 21.4063,122.2344 Q18.9063,122.2344 17.5781,120.5938 Q16.2656,118.9375 16.2656,115.8125 Q16.2656,112.6875 17.5781,111.0313 Q18.9063,109.375 21.4063,109.375 Q22.1094,109.375 22.75,109.5313 Q23.4063,109.6875 23.9688,109.9844 L23.9688,112.7031 Q23.3438,112.125 22.75,111.8594 Q22.1563,111.5781 21.5313,111.5781 Q20.1875,111.5781 19.5,112.6563 Q18.8125,113.7188 18.8125,115.8125 Q18.8125,117.9063 19.5,118.9844 Q20.1875,120.0469 21.5313,120.0469 Q22.1563,120.0469 22.75,119.7813 Q23.3438,119.5 23.9688,118.9219 L23.9688,121.6406 Z "/><text fill="#000000" font-family="sans-serif" font-size="12" lengthAdjust="spacingAndGlyphs" textLength="63" x="35" y="120.1543">MainMenu</text><!--MD5=[c45792e343e47e17798f8cc07e094068]
class Toolbar--><rect fill="#F8F8F8" filter="url(#f61han9otnsxd)" height="32" id="Toolbar" style="stroke: #383838; stroke-width: 1.5;" width="79" x="136" y="100"/><ellipse cx="151" cy="116" fill="#C2C2C2" rx="11" ry="11" style="stroke: #383838; stroke-width: 1.0;"/><path d="M153.9688,121.6406 Q153.3906,121.9375 152.75,122.0781 Q152.1094,122.2344 151.4063,122.2344 Q148.9063,122.2344 147.5781,120.5938 Q146.2656,118.9375 146.2656,115.8125 Q146.2656,112.6875 147.5781,111.0313 Q148.9063,109.375 151.4063,109.375 Q152.1094,109.375 152.75,109.5313 Q153.4063,109.6875 153.9688,109.9844 L153.9688,112.7031 Q153.3438,112.125 152.75,111.8594 Q152.1563,111.5781 151.5313,111.5781 Q150.1875,111.5781 149.5,112.6563 Q148.8125,113.7188 148.8125,115.8125 Q148.8125,117.9063 149.5,118.9844 Q150.1875,120.0469 151.5313,120.0469 Q152.1563,120.0469 152.75,119.7813 Q153.3438,119.5 153.9688,118.9219 L153.9688,121.6406 Z "/><text fill="#000000" font-family="sans-serif" font-size="12" lengthAdjust="spacingAndGlyphs" textLength="47" x="165" y="120.1543">Toolbar</text><!--MD5=[a1ad0f6657f5fbe09dcfc588ff3eda4c]
class StatusLine--><rect fill="#F8F8F8" filter="url(#f61han9otnsxd)" height="32" id="StatusLine" style="stroke: #383838; stroke-width: 1.5;" width="98" x="250.5" y="100"/><ellipse cx="265.5" cy="116" fill="#C2C2C2" rx="11" ry="11" style="stroke: #383838; stroke-width: 1.0;"/><path d="M268.4688,121.6406 Q267.8906,121.9375 267.25,122.0781 Q266.6094,122.2344 265.9063,122.2344 Q263.4063,122.2344 262.0781,120.5938 Q260.7656,118.9375 260.7656,115.8125 Q260.7656,112.6875 262.0781,111.0313 Q263.4063,109.375 265.9063,109.375 Q266.6094,109.375 267.25,109.5313 Q267.9063,109.6875 268.4688,109.9844 L268.4688,112.7031 Q267.8438,112.125 267.25,111.8594 Q266.6563,111.5781 266.0313,111.5781 Q264.6875,111.5781 264,112.6563 Q263.3125,113.7188 263.3125,115.8125 Q263.3125,117.9063 264,118.9844 Q264.6875,120.0469 266.0313,120.0469 Q266.6563,120.0469 267.25,119.7813 Q267.8438,119.5 268.4688,118.9219 L268.4688,121.6406 Z "/><text fill="#000000" font-family="sans-serif" font-size="12" lengthAdjust="spacingAndGlyphs" textLength="66" x="279.5" y="120.1543">StatusLine</text><!--MD5=[8048d3ec19bdfcca05d5aaa1cdaa70ff]
class ScalableCanvas--><rect fill="#F8F8F8" filter="url(#f61han9otnsxd)" height="32" id="ScalableCanvas" style="stroke: #383838; stroke-width: 1.5;" width="130" x="383.5" y="100"/><ellipse cx="398.5" cy="116" fill="#C2C2C2" rx="11" ry="11" style="stroke: #383838; stroke-width: 1.0;"/><path d="M401.4688,121.6406 Q400.8906,121.9375 400.25,122.0781 Q399.6094,122.2344 398.9063,122.2344 Q396.4063,122.2344 395.0781,120.5938 Q393.7656,118.9375 393.7656,115.8125 Q393.7656,112.6875 395.0781,111.0313 Q396.4063,109.375 398.9063,109.375 Q399.6094,109.375 400.25,109.5313 Q400.9063,109.6875 401.4688,109.9844 L401.4688,112.7031 Q400.8438,112.125 400.25,111.8594 Q399.6563,111.5781 399.0313,111.5781 Q397.6875,111.5781 397,112.6563 Q396.3125,113.7188 396.3125,115.8125 Q396.3125,117.9063 397,118.9844 Q397.6875,120.0469 399.0313,120.0469 Q399.6563,120.0469 400.25,119.7813 Q400.8438,119.5 401.4688,118.9219 L401.4688,121.6406 Z "/><text fill="#000000" font-family="sans-serif" font-size="12" lengthAdjust="spacingAndGlyphs" textLength="98" x="412.5" y="120.1543">ScalableCanvas</text><!--MD5=[2d2f937ea9599685e7675011821e6ad1]
class ProcessingControl--><rect fill="#F8F8F8" filter="url(#f61han9otnsxd)" height="32" id="ProcessingControl" style="stroke: #383838; stroke-width: 1.5;" width="146" x="548.5" y="100"/><ellipse cx="563.5" cy="116" fill="#C2C2C2" rx="11" ry="11" style="stroke: #383838; stroke-width: 1.0;"/><path d="M566.4688,121.6406 Q565.8906,121.9375 565.25,122.0781 Q564.6094,122.2344 563.9063,122.2344 Q561.4063,122.2344 560.0781,120.5938 Q558.7656,118.9375 558.7656,115.8125 Q558.7656,112.6875 560.0781,111.0313 Q561.4063,109.375 563.9063,109.375 Q564.6094,109.375 565.25,109.5313 Q565.9063,109.6875 566.4688,109.9844 L566.4688,112.7031 Q565.8438,112.125 565.25,111.8594 Q564.6563,111.5781 564.0313,111.5781 Q562.6875,111.5781 562,112.6563 Q561.3125,113.7188 561.3125,115.8125 Q561.3125,117.9063 562,118.9844 Q562.6875,120.0469 564.0313,120.0469 Q564.6563,120.0469 565.25,119.7813 Q565.8438,119.5 566.4688,118.9219 L566.4688,121.6406 Z "/><text fill="#000000" font-family="sans-serif" font-size="12" lengthAdjust="spacingAndGlyphs" textLength="114" x="577.5" y="120.1543">ProcessingControl</text><!--MD5=[570401d9bf0155c119c10306034a4821]
class LayersSelector--><rect fill="#F8F8F8" filter="url(#f61han9otnsxd)" height="32" id="LayersSelector" style="stroke: #383838; stroke-width: 1.5;" width="124" x="729.5" y="100"/><ellipse cx="744.5" cy="116" fill="#C2C2C2" rx="11" ry="11" style="stroke: #383838; stroke-width: 1.0;"/><path d="M747.4688,121.6406 Q746.8906,121.9375 746.25,122.0781 Q745.6094,122.2344 744.9063,122.2344 Q742.4063,122.2344 741.0781,120.5938 Q739.7656,118.9375 739.7656,115.8125 Q739.7656,112.6875 741.0781,111.0313 Q742.4063,109.375 744.9063,109.375 Q745.6094,109.375 746.25,109.5313 Q746.9063,109.6875 747.4688,109.9844 L747.4688,112.7031 Q746.8438,112.125 746.25,111.8594 Q745.6563,111.5781 745.0313,111.5781 Q743.6875,111.5781 743,112.6563 Q742.3125,113.7188 742.3125,115.8125 Q742.3125,117.9063 743,118.9844 Q743.6875,120.0469 745.0313,120.0469 Q745.6563,120.0469 746.25,119.7813 Q746.8438,119.5 747.4688,118.9219 L747.4688,121.6406 Z "/><text fill="#000000" font-family="sans-serif" font-size="12" lengthAdjust="spacingAndGlyphs" textLength="92" x="758.5" y="120.1543">LayersSelector</text><!--MD5=[7bff1aba3b0d0725284345139f4478e9]
class History--><rect fill="#F8F8F8" filter="url(#f61han9otnsxd)" height="32" id="History" style="stroke: #383838; stroke-width: 1.5;" width="75" x="889" y="100"/><ellipse cx="904" cy="116" fill="#C2C2C2" rx="11" ry="11" style="stroke: #383838; stroke-width: 1.0;"/><path d="M906.9688,121.6406 Q906.3906,121.9375 905.75,122.0781 Q905.1094,122.2344 904.4063,122.2344 Q901.9063,122.2344 900.5781,120.5938 Q899.2656,118.9375 899.2656,115.8125 Q899.2656,112.6875 900.5781,111.0313 Q901.9063,109.375 904.4063,109.375 Q905.1094,109.375 905.75,109.5313 Q906.4063,109.6875 906.9688,109.9844 L906.9688,112.7031 Q906.3438,112.125 905.75,111.8594 Q905.1563,111.5781 904.5313,111.5781 Q903.1875,111.5781 902.5,112.6563 Q901.8125,113.7188 901.8125,115.8125 Q901.8125,117.9063 902.5,118.9844 Q903.1875,120.0469 904.5313,120.0469 Q905.1563,120.0469 905.75,119.7813 Q906.3438,119.5 906.9688,118.9219 L906.9688,121.6406 Z "/><text fill="#000000" font-family="sans-serif" font-size="12" lengthAdjust="spacingAndGlyphs" textLength="43" x="918" y="120.1543">History</text><!--MD5=[0ed328881db9d8746a86a73d4b86e017]
reverse link MainWindow to MainMenu--><path d="M381.6125,39.0952 C314.897,54.2243 209.5143,78.3191 118.5,100 C112.8474,101.3465 106.9233,102.7774 101.0493,104.2084 " fill="none" id="MainWindow&lt;-MainMenu" style="stroke: #383838; stroke-width: 1.0;"/><polygon fill="#FFFFFF" points="394.4243,36.1922,387.6887,33.617,382.721,38.844,389.4566,41.4192,394.4243,36.1922" style="stroke: #383838; stroke-width: 1.0;"/><!--MD5=[e5ea06282fd2f41286d460661d73614a]
reverse link MainWindow to Toolbar--><path d="M388.4249,44.2451 C335.8432,61.9649 260.9364,87.2083 215.4157,102.5485 " fill="none" id="MainWindow&lt;-Toolbar" style="stroke: #383838; stroke-width: 1.0;"/><polygon fill="#FFFFFF" points="400.947,40.0252,393.9838,38.1508,389.5754,43.8574,396.5386,45.7319,400.947,40.0252" style="stroke: #383838; stroke-width: 1.0;"/><!--MD5=[c3149dc9e3fd25d614c51451ed614210]
reverse link MainWindow to StatusLine--><path d="M411.3387,46.9452 C384.6728,63.4101 349.3995,85.1896 325.6563,99.8498 " fill="none" id="MainWindow&lt;-StatusLine" style="stroke: #383838; stroke-width: 1.0;"/><polygon fill="#FFFFFF" points="422.5462,40.0252,415.3395,39.774,412.3358,46.3297,419.5425,46.5809,422.5462,40.0252" style="stroke: #383838; stroke-width: 1.0;"/><!--MD5=[c9ff680126bd7ad454829fe2dc7e09eb]
reverse link MainWindow to ScalableCanvas--><path d="M448.5,53.1374 C448.5,68.5796 448.5,86.9646 448.5,99.8498 " fill="none" id="MainWindow&lt;-ScalableCanvas" style="stroke: #383838; stroke-width: 1.0;"/><polygon fill="#FFFFFF" points="448.5,40.0252,444.5,46.0252,448.5,52.0252,452.5,46.0252,448.5,40.0252" style="stroke: #383838; stroke-width: 1.0;"/><!--MD5=[cea404c163cd15eb03ddb3021fea309c]
reverse link MainWindow to ProcessingControl--><path d="M490.4029,46.2836 C521.5037,62.8228 563.1921,84.9923 591.1306,99.8498 " fill="none" id="MainWindow&lt;-ProcessingControl" style="stroke: #383838; stroke-width: 1.0;"/><polygon fill="#FFFFFF" points="478.6343,40.0252,482.0537,46.374,489.2293,45.6595,485.8099,39.3107,478.6343,40.0252" style="stroke: #383838; stroke-width: 1.0;"/><!--MD5=[6c3577c71dd315c454c801dcc3ade07a]
reverse link MainWindow to LayersSelector--><path d="M515.7688,42.043 C578.5542,58.8834 671.3658,83.7774 731.6406,99.9444 " fill="none" id="MainWindow&lt;-LayersSelector" style="stroke: #383838; stroke-width: 1.0;"/><polygon fill="#FFFFFF" points="502.8494,38.5777,507.6083,43.9955,514.4397,41.6865,509.6808,36.2687,502.8494,38.5777" style="stroke: #383838; stroke-width: 1.0;"/><!--MD5=[cd6e068aaf268c7f7f2af6e2656999c7]
reverse link MainWindow to History--><path d="M515.5113,33.8059 C599.2949,46.5774 746.8686,70.7613 871.5,100 C877.1153,101.3174 883.0094,102.8591 888.7676,104.4559 " fill="none" id="MainWindow&lt;-History" style="stroke: #383838; stroke-width: 1.0;"/><polygon fill="#FFFFFF" points="502.6256,31.8551,507.9592,36.7082,514.4904,33.6514,509.1568,28.7983,502.6256,31.8551" style="stroke: #383838; stroke-width: 1.0;"/><!--MD5=[9f8157508dd960559749fb6071c92045]
@startuml

skinparam monochrome true

class MainWindow{
    _init_menu()
    _init_toolbar()
    _init_status_line()
    _init_canvas()
    _init_control_frame()
    _init_layers_selector()
    _bind_controllers()
    load_interferogram_dialog()
    save_phases_dialog()
}

class MainMenu
class Toolbar
class StatusLine


class ScalableCanvas{
    scale_image(percent)
    crawl(dx, dy)
    get_coords(x, y)
}


class ProcessingControl{
}

class LayersSelector{
}

hide members

MainWindow o-down- MainMenu
MainWindow o-down- Toolbar
MainWindow o-down- StatusLine
MainWindow o-down- ScalableCanvas
MainWindow o-down- ProcessingControl
MainWindow o-down- LayersSelector
MainWindow o-down- History

@enduml

PlantUML version 1.2019.12(Sun Nov 03 13:24:54 MSK 2019)
(GPL source distribution)
Java Runtime: OpenJDK Runtime Environment
JVM: OpenJDK 64-Bit Server VM
Java Version: 11.0.7+10-post-Debian-3deb10u1
Operating System: Linux
Default Encoding: UTF-8
Language: ru
Country: RU
--></g></svg>